<svg xmlns="http://www.w3.org/2000/svg" viewBox="0 0 720 540" role="img" aria-label="Friendly cat illustration">
  <defs>
    <linearGradient id="bg" x1="0" y1="0" x2="1" y2="1">
      <stop offset="0" stop-color="#fff7ed"/>
      <stop offset="1" stop-color="#f7f7f5"/>
    </linearGradient>
  </defs>

  <rect width="720" height="540" rx="28" fill="url(#bg)"/>

  <!-- Cat body -->
  <g>
    <ellipse cx="360" cy="338" rx="180" ry="130" fill="#fbbf24" fill-opacity="0.35"/>
    <ellipse cx="360" cy="330" rx="155" ry="110" fill="#f59e0b" fill-opacity="0.35"/>

    <!-- Head -->
    <circle cx="360" cy="220" r="110" fill="#f59e0b" fill-opacity="0.38"/>

    <!-- Ears -->
    <path d="M280 148l-54-60c-10-12 2-30 18-26l64 18c10 3 16 14 12 24l-12 44c-4 14-20 18-28 0z" fill="#f59e0b" fill-opacity="0.38"/>
    <path d="M440 148l54-60c10-12-2-30-18-26l-64 18c-10 3-16 14-12 24l12 44c4 14 20 18 28 0z" fill="#f59e0b" fill-opacity="0.38"/>

    <!-- Face -->
    <circle cx="320" cy="220" r="10" fill="#111827" fill-opacity="0.7"/>
    <circle cx="400" cy="220" r="10" fill="#111827" fill-opacity="0.7"/>
    <path d="M360 236c-10 10-20 16-34 18" stroke="#111827" stroke-opacity="0.5" stroke-width="4" fill="none" stroke-linecap="round"/>
    <path d="M360 236c10 10 20 16 34 18" stroke="#111827" stroke-opacity="0.5" stroke-width="4" fill="none" stroke-linecap="round"/>
    <path d="M350 248c6 6 14 6 20 0" stroke="#111827" stroke-opacity="0.55" stroke-width="4" fill="none" stroke-linecap="round"/>

    <!-- Whiskers -->
    <g stroke="#111827" stroke-opacity="0.35" stroke-width="3" stroke-linecap="round">
      <path d="M270 245h70"/>
      <path d="M260 265h80"/>
      <path d="M450 245h70"/>
      <path d="M440 265h80"/>
    </g>
  </g>

  <!-- Coffee mug -->
  <g transform="translate(520 330)">
    <rect x="0" y="0" width="96" height="90" rx="18" fill="#ffffff" stroke="#111827" stroke-opacity="0.12"/>
    <path d="M96 22h16c14 0 24 10 24 24s-10 24-24 24H96" fill="none" stroke="#111827" stroke-opacity="0.22" stroke-width="8" stroke-linecap="round"/>
    <rect x="14" y="20" width="50" height="10" rx="5" fill="#1f6feb" fill-opacity="0.15"/>
  </g>
</svg>
