<svg xmlns="http://www.w3.org/2000/svg" viewBox="0 0 720 540" role="img" aria-label="Message illustration">
  <defs>
    <linearGradient id="bg" x1="0" y1="0" x2="1" y2="1">
      <stop offset="0" stop-color="#f7f7f5"/>
      <stop offset="1" stop-color="#eef2ff"/>
    </linearGradient>
  </defs>

  <rect width="720" height="540" rx="28" fill="url(#bg)"/>

  <!-- Big message bubble -->
  <path d="M160 140c0-28 22-50 50-50h300c28 0 50 22 50 50v170c0 28-22 50-50 50H320l-80 70v-70H210c-28 0-50-22-50-50V140z" fill="#ffffff" stroke="#111827" stroke-opacity="0.12" stroke-width="2"/>

  <!-- Lines -->
  <g fill="#111827" fill-opacity="0.10">
    <rect x="210" y="150" width="260" height="14" rx="7"/>
    <rect x="210" y="182" width="320" height="12" rx="6"/>
    <rect x="210" y="210" width="290" height="12" rx="6"/>
    <rect x="210" y="238" width="180" height="12" rx="6"/>
  </g>

  <!-- Paper plane -->
  <g transform="translate(500 340)">
    <path d="M0 60L170 0l-60 170-28-58-82-52z" fill="#1f6feb" fill-opacity="0.18"/>
    <path d="M0 60L170 0l-98 104" fill="none" stroke="#111827" stroke-opacity="0.18" stroke-width="4" stroke-linecap="round"/>
    <path d="M72 104l20 66" fill="none" stroke="#111827" stroke-opacity="0.16" stroke-width="4" stroke-linecap="round"/>
  </g>

  <!-- Accent dots -->
  <circle cx="126" cy="408" r="18" fill="#6ee7b7" fill-opacity="0.24"/>
  <circle cx="616" cy="126" r="22" fill="#1f6feb" fill-opacity="0.16"/>
</svg>
