<svg xmlns="http://www.w3.org/2000/svg" viewBox="0 0 720 540" role="img" aria-label="Education illustration">
  <defs>
    <linearGradient id="bg" x1="0" y1="0" x2="1" y2="1">
      <stop offset="0" stop-color="#eef2ff"/>
      <stop offset="1" stop-color="#f7f7f5"/>
    </linearGradient>
  </defs>

  <rect width="720" height="540" rx="28" fill="url(#bg)"/>

  <!-- Book stack -->
  <g>
    <rect x="140" y="320" width="440" height="80" rx="18" fill="#ffffff" stroke="#111827" stroke-opacity="0.12"/>
    <rect x="160" y="342" width="220" height="12" rx="6" fill="#111827" fill-opacity="0.10"/>
    <rect x="140" y="250" width="410" height="70" rx="18" fill="#ffffff" stroke="#111827" stroke-opacity="0.12"/>
    <rect x="160" y="272" width="180" height="12" rx="6" fill="#111827" fill-opacity="0.10"/>
    <rect x="140" y="190" width="380" height="60" rx="18" fill="#ffffff" stroke="#111827" stroke-opacity="0.12"/>
    <rect x="160" y="210" width="150" height="12" rx="6" fill="#111827" fill-opacity="0.10"/>
  </g>

  <!-- Graduation cap -->
  <g transform="translate(360 150)">
    <path d="M0-50 170 20 0 90-170 20 0-50z" fill="#0b1220" fill-opacity="0.88"/>
    <path d="M0-20 118 28 0 76-118 28 0-20z" fill="#111827" fill-opacity="0.72"/>
    <path d="M170 20v62" stroke="#1f6feb" stroke-opacity="0.55" stroke-width="6" stroke-linecap="round"/>
    <circle cx="170" cy="96" r="10" fill="#1f6feb" fill-opacity="0.55"/>
  </g>

  <!-- Accent bubbles -->
  <circle cx="120" cy="140" r="54" fill="#1f6feb" fill-opacity="0.12"/>
  <circle cx="610" cy="420" r="70" fill="#6ee7b7" fill-opacity="0.18"/>
</svg>
