<svg xmlns="http://www.w3.org/2000/svg" viewBox="0 0 800 800" role="img" aria-label="Photography placeholder 6">
  <defs>
    <linearGradient id="g" x1="0" y1="0" x2="1" y2="1">
      <stop offset="0" stop-color="#fff7ed"/>
      <stop offset="1" stop-color="#f7f7f5"/>
    </linearGradient>
  </defs>
  <rect width="800" height="800" rx="36" fill="url(#g)"/>
  <rect x="140" y="160" width="260" height="14" rx="7" fill="#111827" fill-opacity="0.14"/>
  <rect x="140" y="186" width="180" height="12" rx="6" fill="#111827" fill-opacity="0.10"/>

  <!-- Film-strip vibe -->
  <rect x="170" y="260" width="460" height="430" rx="26" fill="#111827" fill-opacity="0.08"/>
  <rect x="210" y="300" width="380" height="300" rx="18" fill="#ffffff" fill-opacity="0.85"/>
  <g fill="#111827" fill-opacity="0.14">
    <circle cx="210" cy="276" r="8"/>
    <circle cx="250" cy="276" r="8"/>
    <circle cx="290" cy="276" r="8"/>
    <circle cx="330" cy="276" r="8"/>
    <circle cx="370" cy="276" r="8"/>
    <circle cx="410" cy="276" r="8"/>
    <circle cx="450" cy="276" r="8"/>
    <circle cx="490" cy="276" r="8"/>
    <circle cx="530" cy="276" r="8"/>
    <circle cx="570" cy="276" r="8"/>

    <circle cx="210" cy="674" r="8"/>
    <circle cx="250" cy="674" r="8"/>
    <circle cx="290" cy="674" r="8"/>
    <circle cx="330" cy="674" r="8"/>
    <circle cx="370" cy="674" r="8"/>
    <circle cx="410" cy="674" r="8"/>
    <circle cx="450" cy="674" r="8"/>
    <circle cx="490" cy="674" r="8"/>
    <circle cx="530" cy="674" r="8"/>
    <circle cx="570" cy="674" r="8"/>
  </g>

  <!-- Abstract photo inside -->
  <path d="M240 580l140-160 90 100 90-120 90 180H240z" fill="#1f6feb" fill-opacity="0.14"/>
  <circle cx="520" cy="360" r="46" fill="#6ee7b7" fill-opacity="0.18"/>
</svg>
