<svg xmlns="http://www.w3.org/2000/svg" viewBox="0 0 640 360" role="img" aria-label="Xpired project illustration">
  <defs>
    <linearGradient id="bg" x1="0" y1="0" x2="1" y2="1">
      <stop offset="0" stop-color="#eef2ff"/>
      <stop offset="1" stop-color="#f7f7f5"/>
    </linearGradient>
  </defs>

  <rect width="640" height="360" rx="22" fill="url(#bg)"/>

  <!-- App card -->
  <rect x="120" y="70" width="400" height="220" rx="22" fill="#ffffff" stroke="#111827" stroke-opacity="0.14"/>

  <!-- Header -->
  <rect x="150" y="100" width="200" height="14" rx="7" fill="#111827" fill-opacity="0.12"/>
  <rect x="150" y="124" width="130" height="10" rx="5" fill="#111827" fill-opacity="0.08"/>

  <!-- List rows -->
  <g>
    <rect x="150" y="156" width="340" height="38" rx="14" fill="#111827" fill-opacity="0.04"/>
    <rect x="168" y="170" width="120" height="10" rx="5" fill="#111827" fill-opacity="0.12"/>
    <rect x="410" y="166" width="62" height="18" rx="9" fill="#1f6feb" fill-opacity="0.18"/>

    <rect x="150" y="204" width="340" height="38" rx="14" fill="#111827" fill-opacity="0.04"/>
    <rect x="168" y="218" width="160" height="10" rx="5" fill="#111827" fill-opacity="0.12"/>
    <rect x="400" y="214" width="72" height="18" rx="9" fill="#6ee7b7" fill-opacity="0.20"/>

    <rect x="150" y="252" width="340" height="38" rx="14" fill="#111827" fill-opacity="0.04"/>
    <rect x="168" y="266" width="140" height="10" rx="5" fill="#111827" fill-opacity="0.12"/>
    <rect x="392" y="262" width="80" height="18" rx="9" fill="#fbbf24" fill-opacity="0.22"/>
  </g>

  <!-- Leaf accent -->
  <path d="M540 110c-22 6-38 22-42 44-4 22 6 44 28 56 22 12 48 10 68-6 20-16 26-44 14-66-12-22-44-36-68-28z" fill="#6ee7b7" fill-opacity="0.35"/>
  <path d="M522 198c34-20 56-52 70-96" stroke="#111827" stroke-opacity="0.18" stroke-width="3" fill="none" stroke-linecap="round"/>
</svg>
