<svg xmlns="http://www.w3.org/2000/svg" viewBox="0 0 640 360" role="img" aria-label="UI kit project illustration">
  <rect width="640" height="360" rx="22" fill="#ffffff"/>
  <rect x="22" y="22" width="596" height="316" rx="18" fill="#f3f4f6"/>

  <!-- Component tiles -->
  <g>
    <rect x="70" y="70" width="240" height="110" rx="18" fill="#ffffff" stroke="#111827" stroke-opacity="0.12"/>
    <rect x="92" y="96" width="120" height="12" rx="6" fill="#111827" fill-opacity="0.12"/>
    <rect x="92" y="120" width="180" height="10" rx="5" fill="#111827" fill-opacity="0.08"/>
    <rect x="92" y="144" width="94" height="26" rx="13" fill="#1f6feb" fill-opacity="0.18"/>

    <rect x="330" y="70" width="240" height="110" rx="18" fill="#ffffff" stroke="#111827" stroke-opacity="0.12"/>
    <rect x="352" y="96" width="150" height="12" rx="6" fill="#111827" fill-opacity="0.12"/>
    <rect x="352" y="120" width="200" height="10" rx="5" fill="#111827" fill-opacity="0.08"/>
    <rect x="352" y="144" width="120" height="10" rx="5" fill="#111827" fill-opacity="0.08"/>
  </g>

  <g>
    <rect x="70" y="200" width="500" height="110" rx="18" fill="#ffffff" stroke="#111827" stroke-opacity="0.12"/>
    <rect x="92" y="226" width="200" height="12" rx="6" fill="#111827" fill-opacity="0.12"/>
    <rect x="92" y="252" width="360" height="10" rx="5" fill="#111827" fill-opacity="0.08"/>
    <rect x="92" y="274" width="310" height="10" rx="5" fill="#111827" fill-opacity="0.08"/>

    <!-- Pill components -->
    <rect x="460" y="238" width="88" height="28" rx="14" fill="#6ee7b7" fill-opacity="0.28"/>
    <rect x="460" y="272" width="110" height="28" rx="14" fill="#fbbf24" fill-opacity="0.28"/>
  </g>

  <!-- Accent dot -->
  <circle cx="596" cy="54" r="14" fill="#1f6feb" fill-opacity="0.22"/>
</svg>
